<svg id="Layer_1" data-name="Layer 1" xmlns="http://www.w3.org/2000/svg" viewBox="0 0 14 11.96"><defs><style>.cls-1{fill:#fff;}</style></defs><title>braces</title><path class="cls-1" d="M2.11,8.06V7.9a1.45,1.45,0,0,0,1.5-1.6V4.5C3.61,3.41,4,3,5,3h.27V2H4.86A2.07,2.07,0,0,0,2.49,4.35V5.88C2.49,7,2.11,7.33,1,7.33v1.3c1.11,0,1.49.36,1.49,1.46v1.52A2.07,2.07,0,0,0,4.86,14h.38V13H5c-1,0-1.36-.44-1.36-1.54V9.66a1.45,1.45,0,0,0-1.5-1.6M13.89,7.9v.16a1.45,1.45,0,0,0-1.5,1.6v1.8C12.39,12.55,12,13,11,13h-.27v1h.38a2.07,2.07,0,0,0,2.37-2.35V10.09c0-1.1.38-1.46,1.49-1.46V7.33c-1.11,0-1.49-.36-1.49-1.45V4.35A2.07,2.07,0,0,0,11.14,2h-.38V3H11c1,0,1.36.45,1.36,1.54V6.3a1.45,1.45,0,0,0,1.5,1.6" transform="translate(-1 -2)"/></svg>