<svg id="Layer_1" data-name="Layer 1" xmlns="http://www.w3.org/2000/svg" viewBox="0 0 15 13.79"><defs><style>.cls-1{fill:#fff;}</style></defs><title>house</title><path class="cls-1" d="M8.71,1.5a1,1,0,0,0-1.42,0L.65,8.15a.48.48,0,0,0,0,.7.48.48,0,0,0,.7,0h0L2,8.21V13.5A1.5,1.5,0,0,0,3.5,15h9A1.5,1.5,0,0,0,14,13.5V8.21l.65.64a.49.49,0,0,0,.7-.7L13,5.79V2.5a.5.5,0,0,0-.5-.5h-1a.5.5,0,0,0-.5.5V3.79ZM13,7.21V13.5a.5.5,0,0,1-.5.5h-9a.5.5,0,0,1-.5-.5V7.21l5-5Z" transform="translate(-0.5 -1.21)"/></svg>